<?xml version="1.0" standalone="no"?>
<!DOCTYPE svg PUBLIC "-//W3C//DTD SVG 20010904//EN"
 "http://www.w3.org/TR/2001/REC-SVG-20010904/DTD/svg10.dtd">
<svg version="1.0" xmlns="http://www.w3.org/2000/svg"
 width="2134.000000pt" height="2134.000000pt" viewBox="0 0 2134.000000 2134.000000"
 preserveAspectRatio="xMidYMid meet">
<metadata>
Created by potrace 1.14, written by Peter Selinger 2001-2017
</metadata>
<g transform="translate(0.000000,2134.000000) scale(0.100000,-0.100000)"
fill="#000000" stroke="none">
<path d="M0 10675 l0 -10665 10665 0 10665 0 0 10665 0 10665 -10665 0 -10665
0 0 -10665z m6120 7640 c3248 -1257 5906 -2288 5907 -2289 2 -1 -8038 -4616
-8090 -4644 -5 -2 -850 308 -1878 689 l-1869 694 0 3924 c0 3134 3 3922 13
3918 6 -3 2669 -1034 5917 -2292z m6823 -3607 c488 -183 887 -336 887 -339 0
-4 -1820 -1051 -4044 -2327 l-4043 -2320 -869 325 c-478 178 -872 328 -876
331 -6 6 8030 4657 8052 4661 3 1 404 -149 893 -331z m1773 -1679 c487 -183
882 -335 877 -339 -4 -4 -1815 -1043 -4023 -2310 -2208 -1266 -4027 -2309
-4041 -2318 -25 -14 -64 0 -903 314 -482 180 -873 331 -869 335 17 17 8048
4649 8060 4649 7 0 412 -149 899 -331z m1761 -1675 c486 -181 883 -331 883
-334 0 -7 -8082 -4643 -8095 -4643 -13 0 -1738 644 -1747 652 -8 7 8053 4662
8067 4658 6 -2 407 -152 892 -333z m2741 -2058 c1000 -371 1843 -684 1875
-696 l57 -21 0 -3920 c0 -2507 -3 -3919 -10 -3919 -13 0 -11813 4570 -11822
4579 -6 5 8051 4641 8080 4650 2 1 821 -302 1820 -673z"/>
</g>
</svg>
